<svg width="189" height="61" viewBox="0 0 189 61" fill="none" xmlns="http://www.w3.org/2000/svg">
<path d="M187.834 22.8917C188.145 26.6388 185.974 30.5092 181.553 34.3141C177.143 38.1102 170.577 41.7649 162.317 45.0707C145.803 51.6798 122.63 56.8507 96.7164 59.0013C70.803 61.152 47.0947 59.8721 29.7171 56.0758C21.0252 54.177 13.946 51.6548 8.97026 48.6378C3.9828 45.6136 1.20373 42.1541 0.892741 38.407C0.58175 34.6599 2.75248 30.7896 7.17315 26.9846C11.5834 23.1886 18.15 19.5338 26.41 16.2281C42.9239 9.61898 66.0968 4.44809 92.0102 2.2974C117.924 0.146706 141.632 1.42667 159.01 5.22292C167.701 7.12174 174.781 9.64397 179.756 12.661C184.744 15.6851 187.523 19.1447 187.834 22.8917Z" stroke="white"/>
</svg>
